<svg xmlns="http://www.w3.org/2000/svg" fill="#FFFFFF" width="2500" height="2000" viewBox="0 0 778 151">
<path fill="none" d="M0 0h192.756v192.756H0V0z"/>
  <path d="M78.063 81.596c5.384 0 10.433-1.517 10.433-12.621 0-12.613-12.621-34.651-41.224-34.651C22.038 34.324 0 53.163 0 79.072c0 21.701 15.646 43.575 45.928 43.575 15.145 0 38.864-9.424 38.864-22.374 0-3.197-3.025-8.416-6.558-8.416-3.539 0-9.76 7.572-22.381 7.572-7.908 0-18.842-7.064-18.842-15.48 0-2.86 2.696-2.353 4.541-2.353h36.511zM46.264 65.442c-4.376 0-10.096 1.345-10.096-4.711 0-5.379 4.547-11.099 10.096-11.099 6.229 0 9.925 4.706 9.925 10.763 0 6.056-5.384 5.047-9.925 5.047zm87.755 18.678c4.712 0 4.541 4.204 4.541 7.908 0 5.047-.5 11.941-6.893 11.941-4.884 0-7.237-4.712-7.237-9.08 0-5.385 3.869-10.77 9.589-10.77zM174.9 63.254c0-25.234-26.243-28.93-35.832-28.93-15.982 0-44.42 9.252-44.42 23.553 0 5.377 4.04 9.252 9.424 9.252 14.974 0 15.982-18.177 26.079-18.177 7.737 0 7.909 11.614 7.909 17.163 0 6.056-2.36 5.72-7.573 5.72-29.611 0-41.051 14.809-41.051 26.75 0 16.66 13.964 24.063 27.929 24.063 7.738 0 12.786-2.19 16.483-4.376 3.704-2.018 5.892-4.206 7.908-4.206 4.205 0 4.541 8.581 17.834 8.581 12.285 0 25.406-10.433 25.406-20.022 0-9.082-10.096 7.066-10.096-22.546V63.255zm46.888-28.93c-17.326 0-31.126 10.596-31.126 27.422 0 27.758 32.978 28.937 32.978 38.863 0 3.698-3.196 5.385-6.564 5.385-9.417 0-16.146-16.662-23.554-16.662-4.877 0-6.393 3.534-6.393 7.91 0 6.391 4.212 15.981 8.416 20.694 2.353 2.694 4.034 3.195 7.401 3.195 1.18 0 2.188-.165 3.197-.337 1.179-.163 2.188-.335 3.368-.335 1.008 0 4.705.507 8.916 1.008 4.205.672 9.082 1.18 12.45 1.18 17.497 0 32.806-10.934 32.806-26.75 0-26.079-37.018-28.096-37.018-38.864 0-3.196 3.032-5.72 6.064-5.72 7.4 0 12.785 13.293 22.374 13.293 4.369 0 8.244-3.368 8.244-7.908 0-6.901-7.743-22.374-15.481-22.374-1.515 0-3.025.5-4.54 1.007-1.516.672-2.861 1.173-4.541 1.173-1.18 0-3.875-.672-6.901-1.173-3.196-.673-6.728-1.008-10.096-1.008zm127.126 44.412c2.353-6.565 5.042-13.966 8.746-19.85 5.892-9.934 15.981-5.556 15.981-15.482 0-7.738-12.449-8.58-17.998-8.58-6.057 0-21.874 1.008-21.874 9.925 0 5.72 5.385 5.22 5.385 12.784 0 4.041-3.532 15.653-8.581 15.653-2.861 0-10.261-11.777-10.261-18.17 0-4.04 3.868-5.383 3.868-9.931 0-9.59-15.145-10.261-21.537-10.261-35.496 0-38.527 7.4-38.527 12.45 0 7.742 9.589 5.718 12.785 12.447l23.554 49.297c2.023 4.206 5.384 10.597 5.384 15.31 0 3.868-2.016 8.244-6.557 8.244-6.901 0-2.524-17.832-18.17-17.832-8.58 0-14.973 7.065-14.973 15.48 0 13.965 14.301 20.186 26.414 20.186 27.423 0 38.192-21.874 46.429-44.249l9.932-27.421zm69.263-27.76c0-17.834 9.418-29.945 24.055-29.945 22.882 0 22.882 23.382 39.536 23.382 9.088 0 13.293-8.41 13.293-16.654 0-8.58-6.228-25.742-16.654-25.742-3.032 0-7.407 2.523-10.432 2.523-4.377 0-12.45-4.54-27.258-4.54-36.004 0-66.115 25.235-66.115 60.73 0 37.184 31.119 61.917 66.786 61.917 23.891 0 47.615-11.778 54.18-36.34 1.173-4.376 1.509-5.219 5.886-5.72 4.04-.672 7.736-3.704 7.736-8.08 0-4.877-1.844-13.794-33.48-13.794-8.58 0-33.978.844-33.978 13.122 0 15.482 17.662 1.853 17.662 15.818 0 6.055-4.377 10.432-10.262 10.432-10.768 0-30.955-12.45-30.955-47.108zm168.946 27.76c2.353-6.565 5.048-13.966 8.746-19.85 5.891-9.934 15.988-5.556 15.988-15.482 0-7.738-12.456-8.58-18.005-8.58-6.056 0-21.873 1.008-21.873 9.925 0 5.72 5.384 5.22 5.384 12.784 0 4.041-3.533 15.653-8.581 15.653-2.861 0-10.26-11.777-10.26-18.17 0-4.04 3.868-5.383 3.868-9.931 0-9.59-15.14-10.261-21.531-10.261-35.503 0-38.528 7.4-38.528 12.45 0 7.742 9.588 5.718 12.786 12.447l23.554 49.297c2.016 4.206 5.384 10.597 5.384 15.31 0 3.868-2.023 8.244-6.564 8.244-6.9 0-2.525-17.832-18.17-17.832-8.58 0-14.973 7.065-14.973 15.48 0 13.965 14.302 20.186 26.415 20.186 27.422 0 38.191-21.874 46.435-44.249l9.925-27.421zm33.63 10.096c0 21.03-10.096 16.99-10.096 24.563 0 8.916 19.85 8.745 26.414 8.745 23.047 0 26.922-5.886 26.922-10.261 0-6.056-4.547-5.05-4.547-20.523V77.728c0-6.23-.837-17.67 8.58-17.67 9.589 0 8.752 15.145 8.752 21.202v9.59c.501 20.02-7.908 12.956-8.079 21.873-.165 4.704 1.178 9.417 26.585 9.417 6.057 0 26.243-.165 26.243-10.597 0-6.229-6.057-2.689-6.057-23.384V77.728c0-6.23-.836-17.67 8.58-17.67 9.59 0 8.754 14.137 8.754 21.202v15.137c0 9.76-5.893 9.596-5.893 15.817 0 8.752 19.514 9.926 25.07 9.926 6.558 0 25.743-.502 25.743-11.106 0-4.877-6.228-5.72-6.228-15.474V60.059c0-16.483-9.926-25.234-25.907-25.234-8.582 0-15.31 3.704-20.358 7.4-4.877 3.876-7.908 7.573-9.253 7.573-3.532 0-3.704-14.973-23.726-14.973-9.925 0-16.654 3.704-21.365 7.4-4.714 3.876-7.401 7.573-9.082 7.573-3.532 0-2.86-5.72-2.86-7.737 0-3.532-.336-7.236-4.548-7.236-.336 0-42.061 4.712-42.061 17.16 0 4.377 2.361 4.206 4.549 6.057 1.68 1.517 3.868 4.54 3.868 15.31v15.48z"/>
</svg>