<svg version="1.1" id="Layer_1" xmlns="http://www.w3.org/2000/svg" xmlns:xlink="http://www.w3.org/1999/xlink" x="0px" y="0px"
	 viewBox="0 0 605 486" style="enable-background:new 0 0 605 486;" xml:space="preserve">
<style type="text/css">
	.st0{fill:#FFFFFF;}
</style>
<g>
	<path class="st0" d="M326.58,282.33c17.76,0,31.74-13.38,31.74-30.51c0-17.13-13.99-30.51-31.74-30.51
		c-17.75,0-31.74,13.38-31.74,30.51C294.83,269.22,308.82,282.33,326.58,282.33z M326.58,232.03c11.3,0,19.91,8.56,19.91,19.8
		c0,11.77-8.34,20.07-19.91,20.07c-11.57,0-19.91-8.56-19.91-20.07C306.67,240.32,315.01,232.03,326.58,232.03z M231.89,281.53
		v-58.87h6.99l34.16,37.46v-37.46h11.57v58.87h-6.73l-34.16-37.73v37.73H231.89z M383.07,281.26l-22.6-58.6h12.37l0.27,0.8
		l13.72,37.2l15.33-38h6.46v0.27l15.07,37.73l13.72-38h12.37l-22.6,58.87h-6.46l-15.6-39.34l-15.6,39.34L383.07,281.26
		L383.07,281.26z"/>
	<path class="st0" d="M499.28,287.95v-70.11l-58.38-32.91h28.25l44.12,24.89v44.96l71.83-69.84H605L499.28,287.95z"/>
	<path class="st0" d="M115.94,281.53v-58.87h43.85v10.17h-32.55v13.38h29.59v9.9h-29.59v14.99h32.55v10.17h-43.85V281.53
		L115.94,281.53z M0,281.53v-58.87h43.04v10.17H11.3v13.65h29.05v10.17H11.3v24.89H0L0,281.53z M88.77,257.45
		c8.61-2.41,13.72-8.83,13.72-16.86c0-10.44-8.88-17.93-21.25-17.93H55.68v58.87h11.57v-23.28h9.15l15.87,23.28h13.18L88.77,257.45z
		 M67.25,248.08v-15.25h13.72c6.19,0,9.95,2.94,9.95,7.76c0,4.82-3.76,7.49-9.95,7.49H67.25z M173.24,281.53v-58.87h43.85v10.17
		h-32.55v13.38h29.59v9.9h-29.59v14.99h32.55v10.17h-43.85V281.53L173.24,281.53z"/>
</g>
</svg>
