<?xml version="1.0" encoding="UTF-8"?>
<svg
   xmlns:svg="http://www.w3.org/2000/svg"
   xmlns="http://www.w3.org/2000/svg"
   version="1.0" 
    width="2500" height="2000"
   fill="#FFFFFF"
   viewBox="0 0 160 15" id="logo">
   <path d="M21.436.017c-1.907 0-3.647.693-4.9 1.948-1.327 1.326-2.048 3.207-2.031 5.29.027 4.02 3.162 7.29 6.985 7.29 3.951 0 7.046-3.176 7.046-7.235.003-2.02-.711-3.87-2.012-5.21C25.221.759 23.416.018 21.436.018zm.084 12.08c-2.803 0-4.476-2.45-4.476-4.814 0-2.869 1.818-4.871 4.425-4.871 2.641 0 4.554 2.036 4.554 4.844.004 2.804-1.892 4.84-4.503 4.84zM46.15 2.742h1.716v8.991H46.15v2.44H57.93V9.927h-2.583v1.796h-4.913V8.342h3.758V5.876h-3.758V2.743h4.913v1.908h2.583V.304H46.15zm58.222.014h1.734s-.004 5.73.003 6.204c.007.943-.237 1.745-.731 2.242-.529.531-1.368.812-2.431.812-2.062 0-3.024-1.021-3.024-3.058V2.76h1.713V.311h-5.772v2.446h1.374v6.21c0 4.391 3.603 5.562 5.729 5.562 2.001 0 5.786-1.164 5.786-5.562V2.76h1.392V.311h-5.773zm29.924 0h1.733s-.003 5.723 0 6.204c.01.943-.237 1.749-.73 2.242-.53.531-1.369.812-2.432.812-2.062 0-3.023-1.021-3.023-3.058V2.76h1.71V.311h-5.77v2.446h1.378v6.21c0 4.391 3.603 5.562 5.729 5.562 2 0 5.783-1.164 5.783-5.562V2.76h1.395V.311h-5.773zM88.999.304H81.53v2.44h1.835v8.99h-1.821v2.44h7.476c2.021 0 5.986-2.081 5.986-6.898 0-4.58-3.91-6.975-6.007-6.972zm-1.039 11.42h-2.008v-8.98h2.194c.694 0 1.754.246 2.638.923 1.07.815 1.615 2.036 1.615 3.623 0 3.852-2.783 4.434-4.439 4.434zm35.297-4.61l-.088-.081.064-.102c.332-.517.888-1.546.888-2.818 0-1.874-1.406-3.812-3.759-3.809h-8.464v2.44h1.676l.006 8.987h-1.675v2.442h8.423c2.137.004 4.297-1.343 4.297-3.917.007-1.6-.853-2.669-1.368-3.142zm-7.05-4.377h4.02c.396 0 1.395.466 1.395 1.566s-.495 1.667-1.395 1.667h-4.02zm4.044 8.99h-4.043V8.265h4.04c.707 0 1.753.551 1.753 1.847.003 1.042-.7 1.617-1.75 1.617zm21.208-8.984h1.609v8.988h-1.609v2.442h5.824v-2.442h-1.612V2.743h1.612V.304h-5.824zM10.286 8.585l.129-.074c1.425-.805 2.177-2.135 2.177-3.833 0-2.912-2.658-4.374-4.148-4.374H0v2.443h1.601v8.987H0v2.44h5.756V11.73H4.212v-2.54h3.521l2.895 4.982h3.39v-2.442h-1.785zM7.856 6.8h-3.61L4.242 2.75h3.644c.782 0 2.099.42 2.099 1.99 0 1.626-1.338 2.06-2.13 2.06zm62.867 1.786l.129-.074c1.422-.805 2.177-2.135 2.177-3.833 0-2.912-2.658-4.377-4.145-4.377h-8.447v2.442h1.601v8.988h-1.601v2.442h5.756v-2.442h-1.544v-2.54h3.521l2.891 4.982h3.393v-2.442H72.67zM68.292 6.8h-3.61l-.006-4.049h3.646c.782 0 2.1.42 2.1 1.99 0 1.626-1.338 2.06-2.13 2.06zM37.549 9.103h3.741l-.074.2c-.454 1.048-1.504 2.807-4.294 2.807-3.182 0-4.34-2.957-4.34-4.942 0-3.102 1.828-4.878 4.567-4.878 2.106 0 3.6 1.451 3.928 2.398h2.319V.325h-2.32V1.59h-.037C40.163.633 38.564 0 36.77 0c-3.92 0-6.872 3.132-6.872 7.107 0 1.986.704 3.84 1.977 5.226 1.314 1.424 3.118 2.212 5.086 2.212a6.235 6.235 0 004.469-1.853v1.535h2.316V6.732h-6.196zm118.002-3.13c-1.747-.537-3.538-1.102-3.538-2.198 0-1.187 1.381-1.573 2.33-1.573 1.889 0 2.88.812 3.155 2.5h2.248V.338h-2.245V1.61h-.037c-.135-.287-.782-1.596-3.18-1.596-2.725 0-4.858 1.363-4.858 3.734 0 2.381 1.442 3.71 5.004 4.567 1.355.324 2.58.89 2.817 1.657.285.917-.07 2.385-2.4 2.385-1.906 0-2.98-1.394-3.193-2.52h-2.282v4.387h2.265v-1.353h.03c.285.548 1.158 1.671 3.447 1.671 2.966 0 4.886-1.901 4.886-4.14 0-2.443-1.805-3.616-4.449-4.428z" />
</svg>