<?xml version="1.0" encoding="UTF-8"?>
<svg width="2500" height="2000" viewBox="0 45 112 68" version="1.1" xmlns="http://www.w3.org/2000/svg" xmlns:xlink="http://www.w3.org/1999/xlink">
    <title>F69C128C-8238-4FCE-A4FA-A5983073DA70</title>
    <defs>
        <filter color-interpolation-filters="auto" id="filter-1">
            <feColorMatrix in="SourceGraphic" type="matrix" values="1.00 0   0   0   0
                        0   1.00  0   0   0
                        0   0   1.00  0   0
                        0   0   0   1   0 "></feColorMatrix>
        </filter>
        <polygon id="path-2" points="0 0 49.3751181 0 49.3751181 17.0708539 0 17.0708539"></polygon>
    </defs>
    <g id="Page-1" stroke="none" stroke-width="1" fill="none" fill-rule="evenodd">
        <g id="D_UI_HOME" transform="translate(-120.000000, -6664.000000)">
            <g id="ORGANISMS/_Footer/Footer&amp;PartnersSecondary" transform="translate(0.000000, 6204.000000)">
                <g id="ORGANISMS/_Footer/Footer_Alt" transform="translate(0.000000, 303.000000)">
                    <g id="Group-16" transform="translate(120.000000, 157.000000)" filter="url(#filter-1)">
                        <g transform="translate(2.000000, 51.000000)">
                            <path d="M31.8839267,39.8797921 L31.6535047,39.8797921 L31.6535047,42.1721795 L31.8839267,42.1721795 C32.6604009,42.1721795 33.5340844,42.0256452 33.5340844,41.025835 C33.5340844,40.0263264 32.6604009,39.8797921 31.8839267,39.8797921 L31.8839267,39.8797921 Z M46.8991615,47.2438944 L43.5268392,47.2438944 L43.5268392,38.0511284 L46.8991615,38.0511284 C49.447305,38.0511284 51.5457055,40.0628092 51.5457055,42.6473607 C51.5457055,45.2322136 49.4347038,47.2438944 46.8991615,47.2438944 L46.8991615,47.2438944 Z M42.7518652,47.2438944 L37.5229655,47.2438944 L37.5229655,38.0511284 L39.9009928,38.0511284 L39.9009928,45.2201532 L42.7518652,45.2201532 L42.7518652,47.2438944 Z M33.9223215,47.2438944 L31.677807,43.7083775 L31.6535047,43.7083775 L31.6535047,47.2438944 L29.2757775,47.2438944 L29.2757775,38.0511284 L32.8302171,38.0511284 C34.6381899,38.0511284 36.0090209,38.9167662 36.0090209,40.8796022 C36.0090209,42.1477571 35.3051536,43.2446538 34.0069296,43.4765157 L36.8824043,47.2438944 L33.9223215,47.2438944 Z M23.1155888,47.5487219 C20.1798083,47.5487219 18.0568054,45.4517136 18.0568054,42.477007 C18.0568054,39.6970765 20.4828372,37.7463009 23.1155888,37.7463009 C25.7480404,37.7463009 28.1746722,39.6970765 28.1746722,42.477007 C28.1746722,45.4517136 26.0516694,47.5487219 23.1155888,47.5487219 L23.1155888,47.5487219 Z M12.7706003,47.2438944 L11.1693473,41.9161967 L11.145345,41.9161967 L9.34967341,47.2438944 L6.93534271,47.2438944 L4.20568188,38.0511284 L6.68061837,38.0511284 L8.26987023,43.9884812 L8.29417255,43.9884812 L10.2110557,38.0511284 L12.1036366,38.0511284 L13.8990081,43.9884812 L13.9233104,43.9884812 L15.6460751,38.0511284 L18.1210116,38.0511284 L15.1972322,47.2438944 L12.7706003,47.2438944 Z M0.0127812213,34.057315 L0.0127812213,51.1282594 L52.8640315,51.1282594 L60.3383457,34.057315 L0.0127812213,34.057315 Z M46.4626198,40.0748696 L45.9042664,40.0748696 L45.9042664,45.2201532 L46.4383174,45.2201532 C47.8577531,45.2201532 49.071069,44.439843 49.071069,42.6473607 C49.071069,41.0017141 47.9912658,40.0748696 46.4626198,40.0748696 L46.4626198,40.0748696 Z M23.1155888,40.0628092 C21.6958532,40.0628092 20.5311419,41.2209126 20.5311419,42.4890674 C20.5311419,44.0741103 21.6958532,45.2322136 23.1155888,45.2322136 C24.5350245,45.2322136 25.6997358,44.0741103 25.6997358,42.4890674 C25.6997358,41.2209126 24.5350245,40.0628092 23.1155888,40.0628092 L23.1155888,40.0628092 Z" id="Fill-1" fill="#FFFFFF"></path>
                            <g id="Group-5" transform="translate(51.606641, 36.929146)">
                                <mask id="mask-3" fill="white">
                                    <use xlink:href="#path-2"></use>
                                </mask>
                                <g id="Clip-4"></g>
                                <path d="M44.7474759,12.6194374 C44.0316075,13.2287909 43.0730159,13.4850752 42.1510278,13.4850752 C40.9983176,13.4850752 39.8705098,13.0949201 38.9362206,12.4367218 L39.9551179,10.5100671 C40.5494747,11.0346961 41.253342,11.461334 42.0661197,11.461334 C42.624173,11.461334 43.2188298,11.1806274 43.2188298,10.5344895 C43.2188298,9.86423076 42.2845405,9.63206736 41.7747918,9.48613608 C40.2830493,9.05949815 39.3001553,8.66934304 39.3001553,6.88892115 C39.3001553,5.0240762 40.6226817,3.80476611 42.4543567,3.80476611 C43.3766449,3.80476611 44.5047527,4.09723168 45.3175303,4.56035243 L44.3712399,6.41373996 C43.9346982,6.04800724 43.3766449,5.80408491 42.7942892,5.80408491 C42.3577475,5.80408491 41.7747918,6.06006767 41.7747918,6.5723347 C41.7747918,7.10902411 42.4180533,7.3161621 42.8305927,7.44973143 L43.4369506,7.63274855 C44.7111724,8.01084323 45.6937663,8.65728261 45.6937663,10.1443344 C45.6937663,11.058817 45.4753454,11.9977219 44.7474759,12.6194374 L44.7474759,12.6194374 Z M38.3589654,6.07212811 L35.5320953,6.07212811 L35.5320953,7.60832617 L38.2131515,7.60832617 L38.2131515,9.63206736 L35.5320953,9.63206736 L35.5320953,11.2174117 L38.3589654,11.2174117 L38.3589654,13.2411529 L33.1543681,13.2411529 L33.1543681,4.04868843 L38.3589654,4.04868843 L38.3589654,6.07212811 Z M28.9068622,13.2411529 L31.2845894,13.2411529 L31.2845894,4.04868843 L28.9068622,4.04868843 L28.9068622,13.2411529 Z M25.147503,13.2411529 L22.9026885,9.70563602 L22.8786862,9.70563602 L22.8786862,13.2411529 L20.500959,13.2411529 L20.500959,4.04868843 L24.0553986,4.04868843 C25.8633714,4.04868843 27.2342024,4.91402472 27.2342024,6.87686071 C27.2342024,8.14501558 26.5303351,9.24191225 25.2321111,9.47407565 L28.1075858,13.2411529 L25.147503,13.2411529 Z M19.0347189,6.07212811 L16.2078487,6.07212811 L16.2078487,7.60832617 L18.889205,7.60832617 L18.889205,9.63206736 L16.2078487,9.63206736 L16.2078487,11.2174117 L19.0347189,11.2174117 L19.0347189,13.2411529 L13.8301215,13.2411529 L13.8301215,4.04868843 L19.0347189,4.04868843 L19.0347189,6.07212811 Z M11.7575235,12.6194374 C11.0416551,13.2287909 10.0833635,13.4850752 9.16107539,13.4850752 C8.0089653,13.4850752 6.8808575,13.0949201 5.9462682,12.4367218 L6.96546559,10.5100671 C7.55982238,11.0346961 8.26368964,11.461334 9.07646731,11.461334 C9.63452063,11.461334 10.2288774,11.1806274 10.2288774,10.5344895 C10.2288774,9.86423076 9.29458815,9.63206736 8.7854395,9.48613608 C7.2930969,9.05949815 6.310503,8.66934304 6.310503,6.88892115 C6.310503,5.0240762 7.63272935,3.80476611 9.46470441,3.80476611 C10.3866925,3.80476611 11.5151003,4.09723168 12.327878,4.56035243 L11.3815876,6.41373996 C10.9447458,6.04800724 10.3866925,5.80408491 9.80433686,5.80408491 C9.36749512,5.80408491 8.7854395,6.06006767 8.7854395,6.5723347 C8.7854395,7.10902411 9.42840094,7.3161621 9.84064033,7.44973143 L10.4472983,7.63274855 C11.72122,8.01084323 12.7041139,8.65728261 12.7041139,10.1443344 C12.7041139,11.058817 12.4856931,11.9977219 11.7575235,12.6194374 L11.7575235,12.6194374 Z M7.47431421,0 L0,17.0709444 L49.3751181,17.0709444 L49.3751181,0 L7.47431421,0 Z M23.1091082,5.87705055 L22.8786862,5.87705055 L22.8786862,8.16943796 L23.1091082,8.16943796 C23.8855824,8.16943796 24.7592659,8.02290366 24.7592659,7.0230935 C24.7592659,6.02358485 23.8855824,5.87705055 23.1091082,5.87705055 L23.1091082,5.87705055 Z" id="Fill-3" fill="#FFFFFF" mask="url(#mask-3)"></path>
                            </g>
                            <path d="M15.603591,2.7028945 L15.603591,18.3326168 C15.603591,20.9672191 15.4514765,21.5958693 14.9321268,22.4955778 C14.1496521,23.7378028 12.7452179,24.4789166 11.1736677,24.4789166 C9.55951346,24.4789166 8.0926733,23.7176015 7.44131106,22.5251259 C6.85445498,21.5105417 6.75424541,20.8843036 6.75424541,18.3326168 L6.75424541,2.7028945 L0,2.7028945 L0,2.70410055 L0,19.3378541 C0,22.5643223 0.637260894,24.8506795 2.05819667,26.7402484 C3.95377781,29.2846989 7.36360363,30.8025048 11.1736677,30.8025048 C14.9474283,30.8025048 18.3500534,29.2907291 20.291539,26.7462786 C21.7160751,24.8506795 22.3521359,22.5643223 22.3521359,19.3378541 L22.3521359,2.70410055 L22.3521359,2.7028945 L15.603591,2.7028945 Z" id="Fill-6" fill="#FFFFFF"></path>
                            <polygon id="Fill-8" fill="#FFFFFF" points="24.7962594 2.7028945 24.7950593 2.70410055 24.7950593 8.82296285 31.6096105 8.82296285 31.6096105 30.40843 38.3662561 30.40843 38.3662561 8.82296285 45.5072385 8.82296285 45.5072385 2.7028945"></polygon>
                            <polygon id="Fill-10" fill="#FFFFFF" points="54.8014666 18.1708562 52.3250299 30.3892841 45.4882767 30.3892841 52.4837451 1.76775843 61.7387295 17.8708528 70.0996284 0 78.8262623 30.3892841 71.7290841 30.3892841 68.4347693 17.3721538 61.7387295 32.4519202"></polygon>
                            <path d="M81.9985254,2.78813164 L81.9985254,30.310047 L91.4911325,30.310047 C97.3854957,30.310047 101.049446,27.1701125 101.049446,22.125232 C101.049446,20.0625959 100.243569,17.9752359 98.947745,16.6727088 C98.3173848,16.0347117 97.7470303,15.6334007 96.9612552,15.3195279 C97.1697751,15.1075657 97.346492,14.8838446 97.5187085,14.6161029 C98.2408775,13.5400105 98.6696184,11.9983852 98.6696184,10.4935443 C98.6696184,8.13964868 97.660022,5.84756279 96.0293661,4.51428157 C94.5460244,3.33145429 92.3840178,2.78813164 89.2184153,2.78813164 L81.9985254,2.78813164 Z M88.754271,8.64407643 L89.3327262,8.64407643 C91.9633776,8.64407643 92.2994097,9.9429854 92.2994097,11.0808876 C92.2994097,12.2184882 91.9612774,13.5161911 89.2973229,13.5161911 L88.754271,13.5161911 L88.754271,8.64407643 Z M88.754271,19.1034897 L89.7191632,19.1034897 C91.7725594,19.1034897 92.3783173,19.2632905 93.0545819,19.6989737 C93.7659499,20.1620945 94.1382854,20.8712481 94.1382854,21.7721627 C94.1382854,23.1114742 93.6564394,24.4848563 90.0230922,24.4848563 L88.754271,24.4848563 L88.754271,19.1034897 Z" id="Fill-12" fill="#FFFFFF"></path>
                            <path d="M105.249037,12.9781148 L105.057019,12.9781148 L105.057019,13.7050576 L105.249037,13.7050576 C105.517563,13.7050576 105.689779,13.6329965 105.689779,13.3676669 C105.689779,13.0432411 105.537665,12.9781148 105.249037,12.9781148 L105.249037,12.9781148 Z M105.840394,15.8198551 L105.057019,14.3159187 L105.057019,15.8198551 L104.33365,15.8198551 L104.33365,12.3672537 L105.338446,12.3672537 C106.080717,12.3672537 106.444951,12.8207261 106.444951,13.3381188 C106.444951,13.7985259 106.170425,14.1645602 105.750985,14.2378273 L106.665172,15.8198551 L105.840394,15.8198551 Z M105.297342,11.8130766 C104.073225,11.8130766 103.075329,12.8563044 103.075329,14.1362182 C103.075329,15.4170365 104.073225,16.4602642 105.297342,16.4602642 C106.521459,16.4602642 107.519354,15.4170365 107.519354,14.1362182 C107.519354,12.8563044 106.521459,11.8130766 105.297342,11.8130766 L105.297342,11.8130766 Z M105.297342,16.9634859 C103.804699,16.9634859 102.593483,15.6977431 102.593483,14.1362182 C102.593483,12.5743917 103.804699,11.3098549 105.297342,11.3098549 C106.789984,11.3098549 108,12.5743917 108,14.1362182 C108,15.6977431 106.789984,16.9634859 105.297342,16.9634859 L105.297342,16.9634859 Z" id="Fill-14" fill="#FFFFFF"></path>
                        </g>
                    </g>
                </g>
            </g>
        </g>
    </g>
</svg>